<?xml version="1.0" encoding="UTF-8" standalone="no"?>
<!-- Created with Inkscape (http://www.inkscape.org/) -->

<svg
   xmlns:dc="http://purl.org/dc/elements/1.1/"
   xmlns:cc="http://creativecommons.org/ns#"
   xmlns:rdf="http://www.w3.org/1999/02/22-rdf-syntax-ns#"
   xmlns:svg="http://www.w3.org/2000/svg"
   xmlns="http://www.w3.org/2000/svg"
   xmlns:xlink="http://www.w3.org/1999/xlink"
   xmlns:sodipodi="http://sodipodi.sourceforge.net/DTD/sodipodi-0.dtd"
   xmlns:inkscape="http://www.inkscape.org/namespaces/inkscape"
   width="744.09448819"
   height="1052.3622047"
   id="svg2"
   version="1.1"
   inkscape:version="0.48.4 r9939"
   sodipodi:docname="lion.svg">
  <defs
     id="defs4">
    <linearGradient
       inkscape:collect="always"
       id="linearGradient3833">
      <stop
         style="stop-color:#000000;stop-opacity:1;"
         offset="0"
         id="stop3835" />
      <stop
         style="stop-color:#000000;stop-opacity:0"
         offset="1"
         id="stop3837" />
    </linearGradient>
    <inkscape:path-effect
       effect="skeletal"
       id="path-effect3804"
       is_visible="true"
       pattern="m 633.36565,58.372078 a 35.355339,35.355339 0 1 1 -70.71067,0 35.355339,35.355339 0 1 1 70.71067,0 z"
       copytype="repeated"
       prop_scale="1"
       scale_y_rel="false"
       spacing="2.2"
       normal_offset="0"
       tang_offset="0"
       prop_units="false"
       vertical_pattern="false"
       fuse_tolerance="0" />
    <inkscape:path-effect
       effect="skeletal"
       id="path-effect3792"
       is_visible="true"
       pattern="m 633.36565,58.372078 a 35.355339,35.355339 0 1 1 -70.71067,0 35.355339,35.355339 0 1 1 70.71067,0 z"
       copytype="repeated"
       prop_scale="1"
       scale_y_rel="false"
       spacing="0"
       normal_offset="0"
       tang_offset="0"
       prop_units="false"
       vertical_pattern="false"
       fuse_tolerance="0" />
    <inkscape:path-effect
       effect="skeletal"
       id="path-effect3782"
       is_visible="true"
       pattern="m 633.36565,58.372078 a 35.355339,35.355339 0 1 1 -70.71067,0 35.355339,35.355339 0 1 1 70.71067,0 z"
       copytype="repeated_stretched"
       prop_scale="1"
       scale_y_rel="false"
       spacing="209"
       normal_offset="0"
       tang_offset="0"
       prop_units="false"
       vertical_pattern="false"
       fuse_tolerance="0" />
    <inkscape:path-effect
       effect="skeletal"
       id="path-effect3772"
       is_visible="true"
       pattern="M 0,0 1,0"
       copytype="single_stretched"
       prop_scale="1"
       scale_y_rel="false"
       spacing="0"
       normal_offset="0"
       tang_offset="0"
       prop_units="false"
       vertical_pattern="false"
       fuse_tolerance="0" />
    <linearGradient
       inkscape:collect="always"
       xlink:href="#linearGradient3833"
       id="linearGradient3841"
       x1="466.64285"
       y1="564.86218"
       x2="526.21429"
       y2="564.86218"
       gradientUnits="userSpaceOnUse"
       gradientTransform="translate(10,-8.9285714)" />
    <linearGradient
       inkscape:collect="always"
       xlink:href="#linearGradient3833"
       id="linearGradient3853"
       gradientUnits="userSpaceOnUse"
       gradientTransform="matrix(0.93040839,0.36652452,-0.36652452,0.93040839,245.6827,-112.11442)"
       x1="466.64285"
       y1="564.86218"
       x2="526.21429"
       y2="564.86218" />
    <linearGradient
       inkscape:collect="always"
       xlink:href="#linearGradient3833"
       id="linearGradient3857"
       gradientUnits="userSpaceOnUse"
       gradientTransform="matrix(0.93040839,-0.36652452,-0.36652452,-0.93040839,245.6827,1221.8388)"
       x1="466.64285"
       y1="564.86218"
       x2="526.21429"
       y2="564.86218" />
    <linearGradient
       inkscape:collect="always"
       xlink:href="#linearGradient3833"
       id="linearGradient3872"
       gradientUnits="userSpaceOnUse"
       gradientTransform="translate(10,-8.9285714)"
       x1="466.64285"
       y1="564.86218"
       x2="526.21429"
       y2="564.86218" />
    <linearGradient
       inkscape:collect="always"
       xlink:href="#linearGradient3833"
       id="linearGradient3874"
       gradientUnits="userSpaceOnUse"
       gradientTransform="matrix(0.93040839,0.36652452,-0.36652452,0.93040839,245.6827,-112.11442)"
       x1="466.64285"
       y1="564.86218"
       x2="526.21429"
       y2="564.86218" />
    <linearGradient
       inkscape:collect="always"
       xlink:href="#linearGradient3833"
       id="linearGradient3876"
       gradientUnits="userSpaceOnUse"
       gradientTransform="matrix(0.93040839,-0.36652452,-0.36652452,-0.93040839,245.6827,1221.8388)"
       x1="466.64285"
       y1="564.86218"
       x2="526.21429"
       y2="564.86218" />
    <linearGradient
       inkscape:collect="always"
       xlink:href="#linearGradient3833"
       id="linearGradient3878"
       gradientUnits="userSpaceOnUse"
       gradientTransform="translate(10,-8.9285714)"
       x1="466.64285"
       y1="564.86218"
       x2="526.21429"
       y2="564.86218" />
    <linearGradient
       inkscape:collect="always"
       xlink:href="#linearGradient3833"
       id="linearGradient3880"
       gradientUnits="userSpaceOnUse"
       gradientTransform="matrix(0.93040839,0.36652452,-0.36652452,0.93040839,245.6827,-112.11442)"
       x1="466.64285"
       y1="564.86218"
       x2="526.21429"
       y2="564.86218" />
    <linearGradient
       inkscape:collect="always"
       xlink:href="#linearGradient3833"
       id="linearGradient3882"
       gradientUnits="userSpaceOnUse"
       gradientTransform="matrix(0.93040839,-0.36652452,-0.36652452,-0.93040839,245.6827,1221.8388)"
       x1="466.64285"
       y1="564.86218"
       x2="526.21429"
       y2="564.86218" />
  </defs>
  <sodipodi:namedview
     id="base"
     pagecolor="#ffffff"
     bordercolor="#666666"
     borderopacity="1.0"
     inkscape:pageopacity="0.0"
     inkscape:pageshadow="2"
     inkscape:zoom="0.49497475"
     inkscape:cx="1152.7919"
     inkscape:cy="405.05569"
     inkscape:document-units="px"
     inkscape:current-layer="layer1"
     showgrid="false"
     inkscape:window-width="1918"
     inkscape:window-height="1153"
     inkscape:window-x="1920"
     inkscape:window-y="45"
     inkscape:window-maximized="0"
     showguides="true"
     inkscape:guide-bbox="true">
    <sodipodi:guide
       orientation="1,0"
       position="330.31988,457.5991"
       id="guide3907" />
    <sodipodi:guide
       orientation="1,0"
       position="412.14224,387.89858"
       id="guide3909" />
  </sodipodi:namedview>
  <metadata
     id="metadata7">
    <rdf:RDF>
      <cc:Work
         rdf:about="">
        <dc:format>image/svg+xml</dc:format>
        <dc:type
           rdf:resource="http://purl.org/dc/dcmitype/StillImage" />
        <dc:title></dc:title>
      </cc:Work>
    </rdf:RDF>
  </metadata>
  <g
     inkscape:label="Layer 1"
     inkscape:groupmode="layer"
     id="layer1">
    <path
       transform="matrix(-0.37675883,1.3367241,-1.3367241,-0.37675883,937.85182,397.33711)"
       d="m 335.24978,434.8185 c -4.09508,-2.06776 -7.77811,-4.93415 -10.91006,-8.20845 -3.13194,-3.2743 -5.71774,-6.94892 -7.68364,-10.69357 0,0 0,0 0,0 -1.49058,-2.83775 -2.62324,-5.71957 -3.36841,-8.56064 -0.74518,-2.84107 -1.10216,-5.64235 -1.0496,-8.36145 0.10514,-5.4382 1.87989,-10.5573 5.2222,-15.18709 3.3423,-4.62979 8.24862,-8.8079 14.163,-11.95178 5.91439,-3.14389 12.84046,-5.21094 19.8053,-5.20763 3.48242,-0.002 6.96749,0.51639 10.2884,1.63137 3.3209,1.11498 6.47621,2.82933 9.28026,5.13233 2.80406,2.30299 5.25417,5.19524 7.17704,8.55405 1.92287,3.35881 3.31544,7.18244 4.06092,11.24445 0.74547,4.06201 0.84188,8.35867 0.26793,12.60164 -0.57395,4.24298 -1.81802,8.42773 -3.64435,12.26743 -1.82632,3.8397 -4.23238,7.33054 -7.04239,10.25129 -2.81001,2.92076 -6.02026,5.26954 -9.41533,6.93452 0,0 0,0 0,0 -4.47499,2.1875 -9.25501,3.17444 -13.90154,3.03134 -4.64653,-0.1431 -9.15663,-1.40615 -13.24973,-3.47781 z m -46.95872,54.86006 c -4.35067,-6.04792 -6.74799,-13.43773 -7.49031,-20.50987 -0.37116,-3.53607 -0.33456,-6.99992 0.0778,-10.25154 0.41235,-3.25162 1.20091,-6.29095 2.35419,-9.03653 0,0 0,0 0,0 1.71412,-4.07778 4.25624,-7.518 7.59301,-10.23792 3.33678,-2.71993 7.47775,-4.73395 12.19926,-5.98671 4.72152,-1.25276 10.02338,-1.74824 15.42423,-1.30264 5.40085,0.44561 10.89385,1.85058 15.79379,4.42104 4.90239,2.5658 9.19636,6.32335 12.16415,11.14026 2.96779,4.81692 4.58312,10.69572 4.42726,16.92157 -0.0779,3.11292 -0.59121,6.30295 -1.53481,9.44052 -0.94361,3.13756 -2.31756,6.22132 -4.07141,9.11678 -3.50771,5.79093 -8.5626,10.79163 -14.3086,14.17398 0,0 0,1e-5 0,1e-5 -3.86856,2.27625 -8.02803,3.82169 -12.16552,4.55833 -4.1375,0.73665 -8.24826,0.66616 -12.07371,-0.1454 -3.82546,-0.81156 -7.36379,-2.36073 -10.46129,-4.4777 -3.0975,-2.11697 -5.75558,-4.79816 -7.92803,-7.82418 z m -66.99625,26.89813 c -0.6948,-4.89908 -0.3529,-9.9347 0.72599,-14.68725 1.07889,-4.75255 2.88236,-9.22168 5.14237,-13.1049 2.26,-3.88323 4.97515,-7.17941 8.01435,-9.71408 3.03921,-2.53467 6.41018,-4.30886 10.0665,-5.28164 3.19677,-0.84349 6.63499,-1.0896 10.23689,-0.75507 3.6019,0.33454 7.36909,1.24794 11.11809,2.71463 3.749,1.46669 7.47785,3.48782 10.90014,6.03589 3.42229,2.54807 6.53291,5.62761 8.99619,9.16526 2.46664,3.53529 4.2792,7.53351 5.1482,11.80387 0.86901,4.27035 0.78673,8.81215 -0.37316,13.28479 -1.15989,4.47264 -3.40149,8.86845 -6.5952,12.76064 -3.1937,3.89219 -7.33625,7.26985 -12.03352,9.76526 -5.40479,2.85974 -11.49868,4.52393 -17.45144,4.78868 -5.95276,0.26476 -11.74067,-0.86462 -16.67084,-3.15954 -4.93016,-2.29491 -8.99319,-5.73906 -11.89215,-9.84769 -2.89897,-4.10862 -4.64227,-8.86911 -5.33241,-13.76885 z m -71.85693,-7.15149 c 2.00595,-5.68644 5.46837,-10.83475 9.55621,-15.04891 4.08785,-4.21416 8.77711,-7.50632 13.50387,-9.63812 4.72675,-2.13181 9.50093,-3.09643 14.12618,-2.78209 4.62525,0.31434 9.12952,1.91138 13.37586,4.67324 4.54559,2.95629 8.83734,7.24583 12.28598,12.46357 3.44865,5.21774 6.02009,11.37079 6.8283,17.77598 0.40715,3.20221 0.37232,6.46241 -0.18358,9.6576 -0.5559,3.1952 -1.63467,6.32472 -3.25583,9.24272 -1.62116,2.91799 -3.78561,5.62284 -6.43255,7.96296 -2.64695,2.34012 -5.77595,4.31331 -9.24232,5.79146 -3.23818,1.38092 -6.7645,2.32875 -10.40637,2.78366 -3.64186,0.45491 -7.39715,0.41628 -11.07189,-0.11727 -3.67473,-0.53355 -7.26673,-1.56163 -10.59357,-3.0253 -3.32684,-1.46368 -6.38679,-3.36166 -9.03896,-5.5876 -2.65217,-2.22594 -4.89568,-4.77811 -6.65091,-7.52579 -1.75522,-2.74767 -3.02227,-5.6893 -3.78848,-8.69483 -0.76621,-3.00552 -1.03252,-6.07402 -0.84501,-9.09493 0.1875,-3.02091 0.82738,-5.99408 1.83307,-8.83635 z M 89.100856,469.75908 c 4.8848,-4.54555 11.041064,-7.675 17.235354,-9.4474 5.32138,-1.52242 10.66477,-2.06206 15.53341,-1.6557 4.86863,0.40635 9.26772,1.76791 13.01237,4.08934 3.74464,2.32144 6.85291,5.61534 9.26974,9.74208 2.41684,4.12675 4.15631,9.0894 5.02794,14.48529 1.12315,6.99803 0.77139,14.73634 -1.81035,21.70451 -1.28756,3.48531 -3.13202,6.76824 -5.55021,9.62519 -2.41819,2.85694 -5.4124,5.28489 -8.88445,7.07783 -2.67543,1.382 -5.62922,2.38638 -8.75975,2.94848 -3.13053,0.56209 -6.43674,0.68106 -9.78007,0.33327 -3.34333,-0.34779 -6.72221,-1.16267 -9.98097,-2.41803 -3.25877,-1.25537 -6.395751,-2.95085 -9.262958,-5.00966 -2.867207,-2.0588 -5.463265,-4.47988 -7.671177,-7.14698 -2.207911,-2.66709 -4.026906,-5.57872 -5.38731,-8.59857 -1.360403,-3.01985 -2.262154,-6.14642 -2.689133,-9.2463 -0.426979,-3.09989 -0.379739,-6.17199 0.108157,-9.10599 0.568069,-3.41528 1.733607,-6.64048 3.37833,-9.56321 1.644722,-2.92273 3.766516,-5.5437 6.211077,-7.81415 z M 53.93774,406.69934 c 6.37778,-1.74348 13.216672,-1.67576 19.477711,-0.40597 6.261039,1.26979 11.936558,3.70303 16.405533,6.88354 4.018223,2.87585 7.07566,6.41118 9.033513,10.54157 1.957853,4.1304 2.829263,8.87875 2.635683,14.01723 -0.19358,5.13848 -1.44423,10.67132 -3.754979,15.9945 -2.310751,5.32318 -5.700784,10.41966 -10.12054,14.40679 -4.41596,3.99135 -9.888604,6.8397 -15.931253,7.78109 -3.021325,0.47069 -6.175089,0.47 -9.342865,-0.0412 -3.167776,-0.51116 -6.348325,-1.53348 -9.397563,-3.04867 -3.049238,-1.51519 -5.965411,-3.5232 -8.601652,-5.94311 -2.63624,-2.41991 -4.990803,-5.25078 -6.94083,-8.35634 -1.950027,-3.10557 -3.49431,-6.48412 -4.556596,-9.96412 -1.062287,-3.48001 -1.642231,-7.05937 -1.722017,-10.56015 -0.08611,-3.89626 0.449375,-7.68182 1.543778,-11.15568 1.094404,-3.47385 2.745637,-6.63455 4.829723,-9.35582 2.084087,-2.72127 4.598936,-5.00331 7.391441,-6.80386 2.792505,-1.80054 5.861195,-3.12114 9.050913,-3.98984 z m -1.93249,-72.18878 c 4.282708,0.92266 8.386625,2.64467 12.105833,4.87052 3.719209,2.22585 7.056147,4.94858 9.868688,7.90616 2.812542,2.95757 5.100892,6.148 6.765577,9.41103 1.664684,3.26304 2.704411,6.60154 3.072896,9.94962 0.41041,3.72733 -0.01303,7.49114 -1.243605,11.22667 -1.230576,3.73552 -3.265986,7.44985 -5.993293,10.96108 -2.727306,3.51123 -6.146013,6.81815 -10.083978,9.57417 -3.937966,2.75601 -8.399528,4.95021 -13.123226,6.16325 -4.722541,1.21753 -9.710921,1.43828 -14.550648,0.38098 -4.839726,-1.05731 -9.523015,-3.40461 -13.512704,-6.962 -3.98969,-3.55738 -7.268391,-8.32243 -9.373464,-13.77544 -2.105072,-5.453 -3.023127,-11.57553 -2.612718,-17.56871 0.368485,-5.38338 1.801698,-10.63322 4.117977,-15.21056 2.316278,-4.57733 5.506298,-8.47364 9.213687,-11.3763 3.70739,-2.90267 7.922587,-4.81204 12.263542,-5.70382 4.340955,-0.89179 8.803608,-0.77339 13.085436,0.15335 z m 31.710232,-64.86 c 4.165085,3.47182 7.514624,7.89879 9.97779,12.611 2.463165,4.71222 4.052987,9.69726 4.759235,14.45874 0.706247,4.76148 0.526529,9.2994 -0.568216,13.3853 -1.094745,4.0859 -3.112964,7.73218 -6.006907,10.88305 -1e-6,0 -2e-6,0 -3e-6,0 -2.050973,2.21989 -4.542331,4.21129 -7.403968,5.93214 -2.861636,1.72086 -6.093321,3.17166 -9.57183,4.26249 -3.478508,1.09084 -7.203444,1.81979 -11.003737,2.05961 -3.800294,0.23981 -7.675468,-0.0135 -11.412733,-0.87918 -3.738088,-0.86211 -7.337491,-2.34102 -10.556924,-4.48167 -3.219434,-2.14064 -6.05567,-4.94602 -8.273288,-8.3275 -2.217619,-3.38149 -3.812049,-7.33856 -4.613576,-11.6294 -0.801527,-4.29085 -0.806355,-8.91096 0.02416,-13.50368 0,0 10e-7,0 10e-7,0 1.178521,-6.47752 4.036437,-12.84138 8.114486,-18.06088 2.039024,-2.60974 4.373057,-4.9369 6.901059,-6.89372 2.528002,-1.95681 5.248847,-3.54293 8.051691,-4.71198 5.605689,-2.3381 11.516594,-2.96989 16.971972,-2.02466 5.455378,0.94523 10.449008,3.44456 14.610789,6.92034 z m 58.118268,-42.8571 c 0.99376,2.3842 1.72513,4.87687 2.21819,7.4063 1.17706,6.04212 1.00089,12.26958 -0.14241,17.89693 -1.1433,5.62736 -3.24524,10.65106 -6.14793,14.65112 -2.9027,4.00006 -6.63085,6.98587 -11.09868,8.86776 -4.46784,1.8819 -9.69513,2.68111 -15.3037,2.39154 -4.44054,-0.22971 -9.1154,-1.13886 -13.636536,-2.79159 -4.521135,-1.65273 -8.88187,-4.05876 -12.585605,-7.24397 -3.706764,-3.18168 -6.746226,-7.15402 -8.647884,-11.73707 -1.901657,-4.58306 -2.651295,-9.77737 -2.000762,-15.09816 0.411163,-3.36023 1.373346,-6.76137 2.864608,-10.03387 1.491263,-3.2725 3.511422,-6.41412 5.967163,-9.25362 2.455741,-2.8395 5.345783,-5.37479 8.516462,-7.46629 3.170679,-2.0915 6.619861,-3.73791 10.159554,-4.85738 3.53968,-1.11948 7.16747,-1.71182 10.69576,-1.76426 3.5283,-0.0524 6.95512,0.43423 10.12686,1.40873 3.17174,0.97449 6.08741,2.43543 8.64991,4.2846 2.56251,1.84918 4.77207,4.08513 6.59364,6.58466 1.5254,2.09278 2.77987,4.36944 3.77136,6.75457 z m 71.36603,-10.99883 c -0.45555,5.252 -2.09277,10.3881 -4.44269,15.00088 -2.34993,4.61277 -5.3967,8.70531 -8.75709,12.00625 -4.22184,4.14731 -8.94144,7.03337 -13.88023,8.38648 -4.9388,1.35312 -10.14033,1.17532 -15.41125,-0.45671 -5.27091,-1.63202 -10.63604,-4.7042 -15.42298,-8.94578 -4.78695,-4.24158 -8.96378,-9.67028 -11.41462,-15.82254 -1.22834,-3.07497 -2.02149,-6.32594 -2.26176,-9.6455 -0.24027,-3.31957 0.0746,-6.70745 1.00157,-10.01434 0.92697,-3.3069 2.46736,-6.53115 4.58942,-9.49597 2.12206,-2.96483 4.82559,-5.66758 7.98122,-7.93715 3.15563,-2.26957 6.76145,-4.10332 10.60653,-5.37682 3.84509,-1.27349 7.92625,-1.98519 11.98998,-2.08959 4.06373,-0.1044 8.10648,0.39828 11.88356,1.46467 3.77709,1.06639 7.2857,2.69471 10.33856,4.76836 4.85987,3.30094 8.52328,7.72737 10.7199,12.63248 2.19662,4.90512 2.94042,10.27372 2.47988,15.52528 z m 68.35053,23.24622 c -2.0508,3.20486 -4.61962,6.07386 -7.47709,8.54462 -2.85747,2.47076 -6.00057,4.54572 -9.22309,6.1963 -3.22252,1.65057 -6.5229,2.87782 -9.7527,3.65973 -3.2298,0.78191 -6.38918,1.11797 -9.39815,0.98912 -10e-6,0 -10e-6,0 -10e-6,0 -4.29949,-0.18942 -8.31802,-1.35262 -11.98357,-3.48767 -3.66555,-2.13504 -6.99328,-5.24527 -9.84314,-9.14774 -2.84987,-3.90248 -5.22351,-8.59546 -6.77498,-13.71178 -1.55147,-5.11633 -2.26232,-10.65615 -1.70752,-16.08184 0.54964,-5.42622 2.39204,-10.73437 5.66716,-15.24054 1.63757,-2.25308 3.6259,-4.30365 5.92754,-6.06601 2.30164,-1.76237 4.91646,-3.23568 7.76569,-4.34842 5.69846,-2.22547 12.35519,-2.96828 18.96086,-2.02032 6.60567,0.94796 13.11928,3.5873 18.47509,7.48172 0,0 0,0 0,1e-5 3.72715,2.72029 6.87782,6.02545 9.24041,9.6393 2.36259,3.61384 3.93674,7.53074 4.67876,11.46703 0.74202,3.93628 0.6547,7.88854 -0.15721,11.63539 -0.81192,3.74684 -2.34421,7.28818 -4.39805,10.4911 z m 49.82924,52.26763 c -4.35455,2.50721 -9.23745,4.07457 -14.1251,4.83123 -4.88765,0.75665 -9.77492,0.71483 -14.26934,0.0113 -4.49443,-0.70356 -8.59484,-2.06887 -12.08722,-4.0446 -3.49237,-1.97573 -6.38112,-4.56987 -8.60849,-7.7479 0,0 0,0 0,0 -1.87586,-2.67828 -3.29763,-5.78309 -4.25253,-9.23318 -0.95491,-3.45009 -1.44505,-7.24615 -1.42896,-11.21344 0.0161,-3.96729 0.5401,-8.10456 1.6471,-12.14857 1.107,-4.04402 2.80265,-7.99193 5.13916,-11.52247 2.33314,-3.53275 5.31363,-6.64401 8.87625,-9.01198 3.56263,-2.36797 7.70954,-3.98584 12.1894,-4.62034 4.47986,-0.6345 9.28766,-0.27953 14.00666,1.10912 4.71899,1.38865 9.33884,3.81214 13.39645,7.06733 0,0 10e-6,0 10e-6,0 4.81518,3.86453 8.79993,8.88354 11.41229,14.34856 2.61237,5.46502 3.84672,11.34998 3.63232,16.88523 -0.2144,5.53524 -1.86576,10.7037 -4.60897,15.01581 -2.74322,4.31211 -6.56211,7.77086 -10.91903,10.27393 z m 19.93223,69.39245 c -3.46781,0.25113 -7.01537,-1.20572 -10.89648,-3.65511 -1.94056,-1.22469 -3.96097,-2.69596 -6.03667,-4.34036 -2.0757,-1.64439 -4.20657,-3.46171 -6.31285,-5.40419 -4.21255,-3.88496 -8.33795,-8.2606 -11.32286,-12.97848 -1.49246,-2.35894 -2.69449,-4.80709 -3.48639,-7.32552 -0.7919,-2.51843 -1.17216,-5.10807 -1.06643,-7.72902 1.40763,-4.87622 3.88353,-9.89864 7.31343,-14.48365 3.4299,-4.585 7.82799,-8.71175 12.9589,-11.56128 5.12821,-2.85442 11.00584,-4.39696 17.01828,-4.01024 3.00622,0.19337 6.03813,0.86225 8.97786,2.0215 2.93973,1.15925 5.78606,2.80934 8.40846,4.90728 2.17287,2.26633 3.90544,5.048 5.1381,8.20702 1.23266,3.15903 1.96547,6.69343 2.22226,10.40589 0.25679,3.71246 0.0391,7.60027 -0.55831,11.44241 -0.59745,3.84214 -1.57203,7.6359 -2.79103,11.17786 -1.219,3.54196 -2.67959,6.83016 -4.25334,9.71425 -1.57375,2.88409 -3.25875,5.36336 -4.96737,7.36083 -1.70862,1.99747 -3.4406,3.51373 -5.16598,4.54604 -1.72538,1.03231 -3.44556,1.58221 -5.17958,1.70477 z"
       sodipodi:ry="151.42857"
       sodipodi:rx="151.42857"
       sodipodi:cy="366.64789"
       sodipodi:cx="200"
       id="path3802"
       style="fill:#c83737;stroke:none"
       sodipodi:type="arc"
       inkscape:path-effect="#path-effect3804"
       inkscape:export-filename="/tmp/lion.png"
       inkscape:export-xdpi="52.299015"
       inkscape:export-ydpi="52.299015" />
    <path
       sodipodi:type="arc"
       style="fill:#c83737;stroke:none"
       id="path2991"
       sodipodi:cx="598.01031"
       sodipodi:cy="58.372078"
       sodipodi:rx="35.355339"
       sodipodi:ry="35.355339"
       d="m 633.36565,58.372078 a 35.355339,35.355339 0 1 1 -70.71067,0 35.355339,35.355339 0 1 1 70.71067,0 z"
       transform="matrix(1.5142858,0,0,1.5142858,-536.85281,656.8838)"
       inkscape:export-filename="/tmp/lion.png"
       inkscape:export-xdpi="52.299015"
       inkscape:export-ydpi="52.299015" />
    <path
       sodipodi:type="arc"
       style="fill:#ffcc00;stroke:none"
       id="path2987"
       sodipodi:cx="200"
       sodipodi:cy="366.64789"
       sodipodi:rx="151.42857"
       sodipodi:ry="151.42857"
       d="m 351.42857,366.64789 a 151.42857,151.42857 0 1 1 -302.857144,0 151.42857,151.42857 0 1 1 302.857144,0 z"
       transform="matrix(1.3468826,0,0,1.3468826,102.67072,32.34943)"
       inkscape:export-filename="/tmp/lion.png"
       inkscape:export-xdpi="52.299015"
       inkscape:export-ydpi="52.299015" />
    <path
       sodipodi:type="arc"
       style="fill:#ffcc00;fill-opacity:1;stroke:none"
       id="path3812"
       sodipodi:cx="519.21838"
       sodipodi:cy="873.56519"
       sodipodi:rx="30.304577"
       sodipodi:ry="30.304577"
       d="m 549.52296,873.56519 a 30.304577,30.304577 0 1 1 -60.60915,0 30.304577,30.304577 0 1 1 60.60915,0 z"
       transform="translate(-278.8021,-503.05597)"
       inkscape:export-filename="/tmp/lion.png"
       inkscape:export-xdpi="52.299015"
       inkscape:export-ydpi="52.299015" />
    <path
       transform="translate(-7.0710653,-501.03566)"
       d="m 549.52296,873.56519 a 30.304577,30.304577 0 1 1 -60.60915,0 30.304577,30.304577 0 1 1 60.60915,0 z"
       sodipodi:ry="30.304577"
       sodipodi:rx="30.304577"
       sodipodi:cy="873.56519"
       sodipodi:cx="519.21838"
       id="path3814"
       style="fill:#ffcc00;fill-opacity:1;stroke:none"
       sodipodi:type="arc"
       inkscape:export-filename="/tmp/lion.png"
       inkscape:export-xdpi="52.299015"
       inkscape:export-ydpi="52.299015" />
    <g
       id="g3903"
       transform="translate(-2.2142802,0)"
       inkscape:export-filename="/tmp/lion.png"
       inkscape:export-xdpi="52.299015"
       inkscape:export-ydpi="52.299015">
      <path
         transform="translate(112.12693,-391.93919)"
         d="m 221.22341,873.56519 c 0,11.15783 -9.04522,20.20305 -20.20305,20.20305 -11.15784,0 -20.20306,-9.04522 -20.20306,-20.20305 0,-11.15784 9.04522,-20.20306 20.20306,-20.20306 11.15783,0 20.20305,9.04522 20.20305,20.20306 z"
         sodipodi:ry="20.203051"
         sodipodi:rx="20.203051"
         sodipodi:cy="873.56519"
         sodipodi:cx="201.02036"
         id="path3816"
         style="fill:#28170b;fill-opacity:1;stroke:none"
         sodipodi:type="arc" />
      <path
         sodipodi:type="arc"
         style="fill:#28170b;fill-opacity:1;stroke:none"
         id="path3818"
         sodipodi:cx="201.02036"
         sodipodi:cy="873.56519"
         sodipodi:rx="20.203051"
         sodipodi:ry="20.203051"
         d="m 221.22341,873.56519 c 0,11.15783 -9.04522,20.20305 -20.20305,20.20305 -11.15784,0 -20.20306,-9.04522 -20.20306,-20.20305 0,-11.15784 9.04522,-20.20306 20.20306,-20.20306 11.15783,0 20.20305,9.04522 20.20305,20.20306 z"
         transform="translate(234.3554,-391.93919)" />
    </g>
    <path
       sodipodi:type="star"
       style="fill:#28170b;fill-opacity:1;stroke:none"
       id="path3833"
       sodipodi:sides="3"
       sodipodi:cx="358.60416"
       sodipodi:cy="560.92297"
       sodipodi:r1="21.812044"
       sodipodi:r2="5.2348905"
       sodipodi:arg1="0.73625743"
       sodipodi:arg2="1.783455"
       inkscape:flatsided="false"
       inkscape:rounded="0"
       inkscape:randomized="0"
       d="m 374.7666,575.57018 -17.26732,-9.53024 -19.6612,1.55651 16.88709,-10.18881 8.48262,-17.80536 0.38022,19.71906 z"
       inkscape:transform-center-y="3.6138984"
       transform="matrix(-1.915446,0.41333373,-0.41333373,-1.915446,1290.7798,1509.7155)"
       inkscape:transform-center-x="-3.3680456e-05"
       inkscape:export-filename="/tmp/lion.png"
       inkscape:export-xdpi="52.299015"
       inkscape:export-ydpi="52.299015" />
    <g
       id="g3859"
       transform="translate(-24.243661,35.355339)"
       inkscape:export-filename="/tmp/lion.png"
       inkscape:export-xdpi="52.299015"
       inkscape:export-ydpi="52.299015">
      <path
         sodipodi:nodetypes="cc"
         inkscape:connector-curvature="0"
         id="path3063"
         d="m 440,555.57647 94.28571,-0.71429"
         style="fill:url(#linearGradient3878);fill-opacity:1;stroke:#c83737;stroke-width:5;stroke-linecap:round;stroke-linejoin:miter;stroke-miterlimit:4;stroke-opacity:1;stroke-dasharray:none" />
      <path
         inkscape:transform-center-y="32.795889"
         inkscape:transform-center-x="-44.274951"
         style="fill:url(#linearGradient3880);fill-opacity:1;stroke:#c83737;stroke-width:5;stroke-linecap:round;stroke-linejoin:miter;stroke-miterlimit:4;stroke-opacity:1;stroke-dasharray:none"
         d="m 438.85337,570.71135 87.98602,33.89344"
         id="path3851"
         inkscape:connector-curvature="0"
         sodipodi:nodetypes="cc" />
      <path
         sodipodi:nodetypes="cc"
         inkscape:connector-curvature="0"
         id="path3855"
         d="m 438.85337,539.01301 87.98602,-33.89344"
         style="fill:url(#linearGradient3882);fill-opacity:1;stroke:#c83737;stroke-width:5;stroke-linecap:round;stroke-linejoin:miter;stroke-miterlimit:4;stroke-opacity:1;stroke-dasharray:none"
         inkscape:transform-center-x="-44.274951"
         inkscape:transform-center-y="-32.795891" />
    </g>
    <g
       id="g3864"
       inkscape:transform-center-x="117.5"
       transform="matrix(-1,0,0,1,766.42336,36.365491)"
       inkscape:export-filename="/tmp/lion.png"
       inkscape:export-xdpi="52.299015"
       inkscape:export-ydpi="52.299015">
      <path
         style="fill:url(#linearGradient3872);fill-opacity:1;stroke:#c83737;stroke-width:5;stroke-linecap:round;stroke-linejoin:miter;stroke-miterlimit:4;stroke-opacity:1;stroke-dasharray:none"
         d="m 440,555.57647 94.28571,-0.71429"
         id="path3866"
         inkscape:connector-curvature="0"
         sodipodi:nodetypes="cc" />
      <path
         sodipodi:nodetypes="cc"
         inkscape:connector-curvature="0"
         id="path3868"
         d="m 438.85337,570.71135 87.98602,33.89344"
         style="fill:url(#linearGradient3874);fill-opacity:1;stroke:#c83737;stroke-width:5;stroke-linecap:round;stroke-linejoin:miter;stroke-miterlimit:4;stroke-opacity:1;stroke-dasharray:none"
         inkscape:transform-center-x="-44.274951"
         inkscape:transform-center-y="32.795889" />
      <path
         inkscape:transform-center-y="-32.795891"
         inkscape:transform-center-x="-44.274951"
         style="fill:url(#linearGradient3876);fill-opacity:1;stroke:#c83737;stroke-width:5;stroke-linecap:round;stroke-linejoin:miter;stroke-miterlimit:4;stroke-opacity:1;stroke-dasharray:none"
         d="m 438.85337,539.01301 87.98602,-33.89344"
         id="path3870"
         inkscape:connector-curvature="0"
         sodipodi:nodetypes="cc" />
    </g>
    <path
       id="path3915"
       style="fill:none;stroke:#000000;stroke-width:10;stroke-linecap:round;stroke-linejoin:round;stroke-miterlimit:4;stroke-opacity:1;stroke-dasharray:none"
       d="m 373.11867,643.57013 c 0,0 -25.82771,23.63167 -39.64286,23.25453 m 39.28571,-23.25453 c 0,0 25.82771,23.63167 39.64286,23.25453"
       inkscape:connector-curvature="0"
       inkscape:export-filename="/tmp/lion.png"
       inkscape:export-xdpi="52.299015"
       inkscape:export-ydpi="52.299015" />
  </g>
</svg>
